# xmcd CD database file generated by Grip 2.7
# 
# Track frame offsets:
#       150
#       11980
#       26320
#       38439
#       52728
#       69854
#       79906
#       92370
#       109286
#       126059
#       137127
#       147151
#       163489
#       178928
#       191316
#       205837
# 
# Disc length: 2985 seconds
# 
# Revision: 3
# Processed by: cddbd v1.4b41PL1 Copyright (c) Steve Scherf et al.
# Submitted via: Grip 2.7
# 
DISCID=d20ba710
DTITLE=Karaoke - Hits zum Mitsingen 2
DYEAR=1900
DGENRE=
TTITLE0=Mendocino
TTITLE1=Michaela
TTITLE2=Tanz Samba mit mir
TTITLE3=Anita
TTITLE4=Verdammt ich lieb Dich
TTITLE5=Wähle 333
TTITLE6=Tränen lügen nicht
TTITLE7=Du kannst nicht immer 17 sein
TTITLE8=Aber bitte mit Sahne
TTITLE9=Schuld war nur der Bossa Nova
TTITLE10=Die Liebe ist ein seltsames Spiel
TTITLE11=Augen zu und durch
TTITLE12=Griechischer Wein
TTITLE13=Marmor Stein und Eisen bricht
TTITLE14=Ein Bett im Kornfeld
TTITLE15=Alice, Who The Fuck...
EXTD=
EXTT0=
EXTT1=
EXTT2=
EXTT3=
EXTT4=
EXTT5=
EXTT6=
EXTT7=
EXTT8=
EXTT9=
EXTT10=
EXTT11=
EXTT12=
EXTT13=
EXTT14=
EXTT15=
PLAYORDER=
